<?xml version="1.0" standalone="no"?><!DOCTYPE svg PUBLIC "-//W3C//DTD SVG 1.1//EN" "http://www.w3.org/Graphics/SVG/1.1/DTD/svg11.dtd"><svg class="icon" width="64px" height="64.00px" viewBox="0 0 1024 1024" version="1.1" xmlns="http://www.w3.org/2000/svg"><path fill="#fdf109" d="M898.262787 69.059017c20.342554-12.385941 48.879262 5.64468 43.839698 29.443871a338160.387797 338160.387797 0 0 1-236.422289 839.793815c-5.158334 21.434015-36.185131 28.536708-49.116803 10.013598-60.957013-95.498808-120.639288-191.91297-181.472411-287.536692-41.349609-6.80167-83.360648-4.613627-124.706161-11.170589-43.290895 0.118771-85.91217-8.015998-129.201018-7.956612-40.919577-7.404739-83.176348-2.30579-123.734493-12.379798-6.251844-3.948102-10.624858-10.080151-15.601965-15.365447 0.242661-7.707809 0.483274-15.356232 0.666549-23.064041 5.463452-5.347753 10.806086-10.933047 17.120387-15.243604C365.928424 406.869503 631.851921 237.599757 898.262787 69.059017z" /></svg>