<?xml version="1.0" standalone="no"?><!DOCTYPE svg PUBLIC "-//W3C//DTD SVG 1.1//EN" "http://www.w3.org/Graphics/SVG/1.1/DTD/svg11.dtd"><svg class="icon" width="64px" height="61.25px" viewBox="0 0 1070 1024" version="1.1" xmlns="http://www.w3.org/2000/svg"><path fill="#d81e06" d="M592.593455 585.285818a200.145455 200.145455 0 0 0-48.03491 31.953455c-75.938909 68.445091-75.194182 185.041455 1.117091 257.163636a27.392 27.392 0 0 0 5.329455 4.817455l127.906909 114.920727H12.613818c0-232.657455 209.268364-421.236364 467.316364-421.236364 38.865455 0 76.567273 4.282182 112.663273 12.381091z m-112.64-83.805091c-153.134545 0-277.248-111.872-277.248-249.879272S326.818909 1.652364 479.953455 1.652364c153.088 0 277.178182 111.941818 277.178181 249.949091 0 138.007273-124.090182 249.879273-277.178181 249.879272zM1009.570909 837.026909l-205.707636 185.483636-200.448-180.130909a7.912727 7.912727 0 0 1-1.28-0.977454 16.267636 16.267636 0 0 1-2.792728-2.722909c-58.368-55.109818-58.926545-144.221091-0.86109-196.584728 55.901091-50.385455 144.942545-53.946182 205.265454-10.379636 60.322909-43.240727 149.015273-39.68 204.520727 10.379636 59.252364 53.434182 59.810909 140.869818 1.303273 194.932364z" /></svg>