<?xml version="1.0" standalone="no"?><!DOCTYPE svg PUBLIC "-//W3C//DTD SVG 1.1//EN" "http://www.w3.org/Graphics/SVG/1.1/DTD/svg11.dtd"><svg class="icon" width="64px" height="64.00px" viewBox="0 0 1024 1024" version="1.1" xmlns="http://www.w3.org/2000/svg"><path fill="#d81e06" d="M807.451012 696.897104c30.742165-55.407937 87.009679-84.508719 140.096759-77.920674 7.766894-34.635845 11.881608-70.746274 11.881608-107.866706 0-32.745798-3.201925-64.706721-9.286504-95.562473-53.756321 7.455809-111.048165-21.915126-141.998061-78.221526-31.449269-57.212026-26.317389-125.160581 8.249894-170.205497C768.917394 120.862695 711.847607 85.285408 648.662543 64.021106c-19.600407 54.524824-73.511247 93.692892-136.956232 93.692892S394.349463 118.544907 374.749056 64.021106c-62.591547 21.063735-119.178333 56.17951-166.387541 101.803617 34.397415 45.190225 39.269375 113.164363 7.599072 170.246429-31.169907 56.180534-88.584548 85.308945-142.317333 77.615728-6.326079 31.43085-9.662057 64.018036-9.662057 97.422844 0 36.4604 3.964288 71.950705 11.465122 106.020662 53.119825-6.376221 109.288079 22.964014 139.821489 78.510098 30.003338 54.583153 26.716478 118.942973-3.665482 163.857928 47.517223 45.031613 104.287181 79.530334 166.964686 99.970876 22.169929-49.530067 73.433476-84.2181 133.138276-84.2181 59.705823 0 110.968347 34.688034 133.139299 84.2181 62.093197-20.250206 118.386294-54.298673 165.631318-98.714256-30.200836-45.041846-33.234939-109.407806-3.024893-163.857928z m-295.744701 6.730285c-105.97359 0-191.882192-85.908602-191.882192-191.882192s85.908602-191.882192 191.882192-191.882192S703.588503 405.771607 703.588503 511.745197s-85.908602 191.882192-191.882192 191.882192z"  /></svg>