<?xml version="1.0" standalone="no"?><!DOCTYPE svg PUBLIC "-//W3C//DTD SVG 1.1//EN" "http://www.w3.org/Graphics/SVG/1.1/DTD/svg11.dtd"><svg class="icon" width="64px" height="64.00px" viewBox="0 0 1024 1024" version="1.1" xmlns="http://www.w3.org/2000/svg"><path fill="#fdf109" d="M198.4 12.8h755.2c32 0 64 25.6 64 64V832c0 32-25.6 64-64 64h-19.2V153.6c0-32-25.6-64-64-64H134.4v-19.2c0-32 32-57.6 64-57.6z m-128 121.6h755.2c32 0 64 25.6 64 64v755.2c0 32-25.6 64-64 64H70.4c-32 0-64-25.6-64-64V198.4c6.4-32 32-64 64-64z m345.6 409.6H198.4v64h217.6v217.6h64V608h217.6v-64H480V326.4h-64v217.6z" /></svg>