<?xml version="1.0" standalone="no"?><!DOCTYPE svg PUBLIC "-//W3C//DTD SVG 1.1//EN" "http://www.w3.org/Graphics/SVG/1.1/DTD/svg11.dtd"><svg class="icon" width="64px" height="64.00px" viewBox="0 0 1024 1024" version="1.1" xmlns="http://www.w3.org/2000/svg"><path fill="#d81e06" d="M1023.976976 938.687133c0 47.117016-37.235992 85.312867-83.166998 85.312867L83.188999 1024c-45.93203 0-83.166998-38.195851-83.166998-85.312867L0.022001 85.313891c0-47.117016 37.234968-85.312867 83.166998-85.312867l857.620978 0c45.93203 0 83.166998 38.195851 83.166998 85.312867L1023.976976 938.687133zM868.770388 426.949099c-10.97596 0-19.874613 8.88228-19.940105 19.838798l0 353.839133c0 22.036855-17.862797 39.880209-39.878163 39.880209L210.653811 840.507239c-22.014342 0-39.878163-17.843355-39.878163-39.880209L170.775649 223.3699c0-22.037878 17.863821-39.879186 39.878163-39.879186l385.343598 0c10.999496-0.017396 19.921685-8.939585 19.921685-19.939081 0-11.016893-8.922189-19.939081-19.921685-19.939081L206.668042 143.612551c-41.854163 0-75.771579 33.918439-75.771579 75.772603l0 585.227645c0 41.858256 33.918439 75.777719 75.771579 75.777719l606.270872 0c41.854163 0 75.771579-33.922533 75.771579-75.777719L888.710493 446.786873C888.651141 435.830355 879.748395 426.948075 868.770388 426.949099L868.770388 426.949099 868.770388 426.949099M498.064132 682.460983 877.446984 303.11497c22.568973-22.554647 20.492689-61.38597-4.648871-86.483527l-35.829972-35.87602c-25.118024-25.140536-63.932974-27.234217-86.50604-4.684686L371.080273 555.495543 498.064132 682.460983 498.064132 682.460983M778.725762 204.399888c8.575289-8.551753 23.291426-7.775065 32.83476 1.74678l35.847368 35.851461c9.517752 9.58222 10.321046 24.276868 1.745757 32.807131l-42.099756 42.101803-69.871208-70.964096L778.725762 204.399888 778.725762 204.399888M777.268577 346.691354l-282.063557 282.108582-70.452444-70.427885 282.64377-282.639677L777.268577 346.691354 777.268577 346.691354M370.896079 556.214926 331.900004 699.116281c-1.704825 6.247272 0.081864 12.867026 4.602822 17.475988 4.584403 4.520958 11.227693 6.286157 17.452452 4.603845L496.869936 682.221529l-29.251149-29.306408-92.796291 25.35543 25.305288-92.845409L370.896079 556.214926M370.896079 556.214926 370.896079 556.214926z" /></svg>