<?xml version="1.0" standalone="no"?><!DOCTYPE svg PUBLIC "-//W3C//DTD SVG 1.1//EN" "http://www.w3.org/Graphics/SVG/1.1/DTD/svg11.dtd"><svg class="icon" width="64px" height="61.48px" viewBox="0 0 1066 1024" version="1.1" xmlns="http://www.w3.org/2000/svg"><path fill="#000000" d="M554.666667 73.6a255.701333 255.701333 0 0 0-255.36 255.402667c0 140.8 114.602667 255.36 255.36 255.36 140.8 0 255.402667-114.602667 255.402666-255.36 0-140.8-114.602667-255.402667-255.402666-255.402667z m257.28 525.354667a67.925333 67.925333 0 0 0-77.312-1.28A321.792 321.792 0 0 1 554.666667 652.458667a321.536 321.536 0 0 1-179.925334-54.784 67.925333 67.925333 0 0 0-77.354666 1.28c-19.797333 14.122667-38.4 29.866667-55.552 47.146666a442.069333 442.069333 0 0 0-122.453334 232.277334 68.096 68.096 0 0 0 66.901334 80.554666h736.682666c42.453333 0 74.666667-38.4 66.986667-80.213333a443.264 443.264 0 0 0-177.962667-279.765333z" /></svg>