<?xml version="1.0" standalone="no"?><!DOCTYPE svg PUBLIC "-//W3C//DTD SVG 1.1//EN" "http://www.w3.org/Graphics/SVG/1.1/DTD/svg11.dtd"><svg class="icon" width="64px" height="64.00px" viewBox="0 0 1024 1024" version="1.1" xmlns="http://www.w3.org/2000/svg"><path fill="#ea9518" d="M563.008 0h-102.016L0 486.016q0 4.992 0.512 11.488t3.488 24.512 7.488 31.488 15.008 24.512 24.512 11.008H128v332.992q0 28 10.496 48.512t25.504 30.496 30.016 15.488 26.016 6.496l10.016 0.992h204.992V665.984q0-12 6.496-18.496t12.512-6.496l7.008-0.992h102.016q3.008 0 7.488 0.992t11.488 7.488 7.008 17.504V1024h204.992q28.992 0 50.496-10.496t31.008-25.504 14.496-30.016 6.016-26.016V562.976h76.992q22.016 0 34.496-19.008t14.496-38.016l2.016-20z"  /></svg>