<?xml version="1.0" standalone="no"?><!DOCTYPE svg PUBLIC "-//W3C//DTD SVG 1.1//EN" "http://www.w3.org/Graphics/SVG/1.1/DTD/svg11.dtd"><svg class="icon" width="64px" height="64.00px" viewBox="0 0 1024 1024" version="1.1" xmlns="http://www.w3.org/2000/svg"><path fill="#000000" d="M512 0.015C229.226 0.015 0 229.232 0 511.994c0 282.751 229.226 511.992 512 511.992 282.775 0 512-229.241 512-511.992C1024 229.23 794.774 0.015 512 0.015z m258.025 544.226c0 17.823-14.424 32.25-32.252 32.25H576.5v161.245c0 17.822-14.424 32.248-32.249 32.248H479.75c-17.826 0-32.25-14.426-32.25-32.248l-0.001-161.243H286.226c-17.826 0-32.25-14.427-32.25-32.25v-64.522c0-17.825 14.424-32.248 32.25-32.248h161.273V286.228c0-17.799 14.426-32.249 32.252-32.249h64.501c17.825 0 32.249 14.45 32.249 32.249v161.245h161.275c17.826 0 32.25 14.449 32.25 32.248v64.52h-0.001z"  /></svg>